HIERARCHY
ROOT Hips
{
	OFFSET 6.586116 105.487152 -0.371975
	CHANNELS 6 Xposition Yposition Zposition Xrotation Yrotation Zrotation
	JOINT Chest
	{
		OFFSET 2.346554 13.431412 0.495050
		CHANNELS 3 Xrotation Yrotation Zrotation
		JOINT Chest2
		{
			OFFSET -0.831182 20.616913 5.772245
			CHANNELS 3 Xrotation Yrotation Zrotation
			JOINT Chest3
			{
				OFFSET 0.098285 14.920364 0.439534
				CHANNELS 3 Xrotation Yrotation Zrotation
				JOINT Neck
				{
					OFFSET -0.096636 17.092560 2.539863
					CHANNELS 3 Xrotation Yrotation Zrotation
					JOINT Head
					{
						OFFSET -3.582272 9.378143 3.007578
						CHANNELS 3 Xrotation Yrotation Zrotation
						End Site
						{
							OFFSET -3.555289 9.407776 2.946424
						}
					}
				}
				JOINT LeftCollar
				{
					OFFSET 4.046350 12.694672 4.927126
					CHANNELS 3 Xrotation Yrotation Zrotation
					JOINT LeftUpArm
					{
						OFFSET 15.589654 4.751022 -6.549030
						CHANNELS 3 Xrotation Yrotation Zrotation
						JOINT LeftLowArm
						{
							OFFSET 32.614502 8.012054 3.439271
							CHANNELS 3 Xrotation Yrotation Zrotation
							JOINT LeftHand
							{
								OFFSET 26.390129 4.135696 13.689542
								CHANNELS 3 Xrotation Yrotation Zrotation
								End Site
								{
									OFFSET 5.767723 0.903900 2.991919
								}
							}
						}
					}
				}
				JOINT RightCollar
				{
					OFFSET -4.366384 12.685120 4.672368
					CHANNELS 3 Xrotation Yrotation Zrotation
					JOINT RightUpArm
					{
						OFFSET -16.289289 2.890656 -5.899107
						CHANNELS 3 Xrotation Yrotation Zrotation
						JOINT RightLowArm
						{
							OFFSET -30.073887 10.377441 11.296200
							CHANNELS 3 Xrotation Yrotation Zrotation
							JOINT RightHand
							{
								OFFSET -26.438488 7.638931 11.983639
								CHANNELS 3 Xrotation Yrotation Zrotation
								End Site
								{
									OFFSET -5.778389 1.669601 2.619143
								}
							}
						}
					}
				}
			}
		}
	}
	JOINT LeftUpLeg
	{
		OFFSET 9.689858 -1.761292 1.850309
		CHANNELS 3 Xrotation Yrotation Zrotation
		JOINT LeftLowLeg
		{
			OFFSET 1.775589 -47.309540 1.625988
			CHANNELS 3 Xrotation Yrotation Zrotation
			JOINT LeftFoot
			{
				OFFSET -4.354452 -42.462692 -13.361378
				CHANNELS 3 Xrotation Yrotation Zrotation
				JOINT LeftToe
				{
					OFFSET -2.063831 -16.840668 16.483078
					CHANNELS 3 Xrotation Yrotation Zrotation
					End Site
					{
						OFFSET 0.904757 -2.818117 23.469097
					}
				}
			}
		}
	}
	JOINT RightUpLeg
	{
		OFFSET -9.689896 1.761093 -1.850317
		CHANNELS 3 Xrotation Yrotation Zrotation
		JOINT RightLowLeg
		{
			OFFSET -33.259239 -25.364586 22.236761
			CHANNELS 3 Xrotation Yrotation Zrotation
			JOINT RightFoot
			{
				OFFSET 10.598431 -43.255375 -4.150396
				CHANNELS 3 Xrotation Yrotation Zrotation
				JOINT RightToe
				{
					OFFSET -12.229565 -15.684263 12.806198
					CHANNELS 3 Xrotation Yrotation Zrotation
					End Site
					{
						OFFSET -19.437000 -1.473425 13.401049
					}
				}
			}
		}
	}
}
MOTION
Frames: 14
Frame Time: 0.033333
7.393359 100.556931 -6.023515 8.749419 0.563660 29.406027 -10.971907 1.998920 -1.976519 3.702348 7.072914 -9.600172 0.324513 -3.151764 -2.174732 0.615216 10.139387 -7.444449 0.000002 -0.000000 0.000001 -5.946510 6.178623 2.677586 -4.763477 3.414428 16.931901 -9.108418 5.585607 10.845621 0.000001 -0.000001 -0.000001 -6.301112 0.557226 -30.292606 -8.494979 -1.859893 -27.679582 12.339993 39.376164 -97.306406 0.000004 0.000000 0.000002 -10.719962 3.319611 -33.410526 7.659242 1.224611 -0.155844 -6.962924 4.736978 3.216767 -0.000000 -0.000000 0.000001 -1.338170 1.909864 6.887015 12.309920 17.508637 54.863255 38.713058 19.433420 12.351498 -0.000004 0.000007 0.000002 
7.487417 100.360107 -6.114314 8.838522 -0.126331 29.644312 -10.779087 1.916847 -1.894128 4.009400 7.220283 -9.758781 0.103994 -2.564617 -2.083880 1.067919 9.986035 -7.420903 0.000001 -0.000002 -0.000002 -6.035162 6.339750 2.557120 -4.874090 3.559256 17.065001 -9.358513 5.596419 10.907892 -0.000000 0.000000 0.000003 -6.184535 0.653759 -30.320784 -8.751217 -2.465828 -27.540629 12.412828 39.577176 -99.007984 -0.000003 0.000003 -0.000001 -10.712688 3.228471 -33.575844 7.329630 1.288746 -0.582984 -6.718665 5.748158 3.768202 0.000001 -0.000000 0.000000 -1.085203 1.749655 6.565258 11.570212 17.483276 55.369103 39.055889 18.378815 12.666890 -0.000002 0.000005 0.000001 
7.590677 100.163383 -6.205926 9.550925 -0.114614 29.623763 -11.333185 1.937464 -1.758355 4.364444 7.118480 -9.819672 -0.286746 -2.353642 -1.979468 1.222023 10.049996 -7.476106 0.000001 -0.000001 -0.000000 -5.974589 6.408737 2.674675 -5.388081 3.989012 17.123839 -9.993499 7.082655 11.551905 -0.000001 -0.000002 0.000006 -6.327044 0.541184 -29.881770 -9.175148 -2.671027 -27.500874 14.018726 39.818650 -101.072436 0.000001 0.000000 0.000005 -10.772282 3.499099 -33.633706 6.799820 1.537769 -0.297844 -5.996784 5.110698 3.466745 0.000000 0.000001 -0.000000 -1.611206 1.718166 6.238918 12.273362 17.608018 55.402499 39.310030 19.680927 12.463616 0.000000 0.000004 -0.000001 
7.687663 99.976486 -6.301113 9.175159 -0.463163 29.717555 -10.522629 1.876092 -1.722241 3.893560 7.073865 -9.768211 -0.129127 -2.344988 -2.028072 1.511596 10.199151 -7.463607 -0.000000 0.000000 -0.000001 -6.273241 6.223558 2.728277 -5.550547 3.470374 17.270000 -9.391555 4.961949 10.751886 0.000003 -0.000001 0.000002 -6.305609 0.865076 -29.800979 -9.836079 -3.206007 -27.494807 16.649956 40.553196 -103.106118 -0.000006 0.000002 0.000000 -10.581679 3.476091 -33.778236 6.790901 1.511743 -0.389800 -5.842926 5.688384 3.756590 -0.000001 0.000000 0.000001 -1.533231 1.628954 6.075168 12.699047 17.865909 55.357536 39.001989 19.753894 12.486096 0.000001 0.000009 0.000001 
7.786711 99.782799 -6.409598 9.539556 -0.340028 29.872587 -11.088383 1.955317 -1.738627 4.309546 7.038391 -9.744070 -0.423491 -2.582327 -2.153362 1.618517 9.973919 -7.382605 0.000003 -0.000001 -0.000002 -6.316090 6.489199 2.906503 -5.537686 3.884790 17.442370 -9.323251 5.278746 10.922087 -0.000000 0.000000 0.000002 -6.372421 0.624376 -29.827761 -9.322289 -2.749185 -27.188326 15.435025 40.093029 -103.805884 -0.000001 0.000002 -0.000001 -10.693756 3.567298 -34.112092 6.490412 1.508522 -0.207023 -5.932085 5.843357 3.826122 -0.000000 0.000000 -0.000001 -1.882271 1.722548 5.704281 12.003169 17.812158 55.904115 39.268530 20.049254 12.369827 0.000001 0.000000 -0.000001 
7.898793 99.586998 -6.503174 9.768530 -0.961520 30.063177 -10.710651 1.802949 -1.482931 3.673825 7.236603 -9.953165 0.126222 -2.270972 -2.101195 1.546679 10.194474 -7.614381 0.000001 0.000001 -0.000003 -6.247895 6.607711 3.113105 -5.248818 3.717777 17.300987 -9.088957 4.589302 11.225643 -0.000000 -0.000001 -0.000000 -6.049541 0.834820 -30.179628 -9.031730 -2.858387 -27.105085 18.575374 40.718125 -105.012232 -0.000002 0.000003 0.000002 -11.009318 3.674506 -34.478081 7.328591 1.297578 -0.188490 -6.994668 6.368172 4.054649 -0.000002 0.000000 0.000001 -2.160329 1.926799 5.711663 11.949541 17.911077 56.142717 40.339408 19.653893 12.689712 -0.000000 0.000005 0.000001 
8.003976 99.406105 -6.590123 10.233446 -1.032125 30.234939 -10.721533 1.755725 -1.317936 3.256787 7.294909 -10.009398 0.565728 -2.079547 -2.215596 1.425783 10.180087 -7.659078 0.000001 -0.000001 -0.000002 -6.278092 6.607907 3.096933 -5.418768 3.923746 17.413492 -9.467660 5.189650 11.509284 0.000002 -0.000002 0.000003 -6.421110 0.379027 -30.379964 -8.985890 -2.608869 -27.028720 17.883223 40.526067 -105.613419 0.000002 -0.000002 0.000002 -11.942495 4.030423 -34.600174 7.882477 1.167225 -0.354422 -7.497385 6.766096 4.235934 -0.000000 -0.000000 -0.000000 -2.607389 2.110298 5.469308 11.776749 18.019246 56.463241 40.728121 19.671788 12.806441 0.000000 -0.000003 0.000000 
8.115947 99.219048 -6.684748 10.539777 -1.404939 30.567269 -10.027994 1.703556 -1.446542 3.187892 7.441558 -10.062752 0.393077 -2.229192 -2.182216 0.627900 10.367946 -7.904723 -0.000001 0.000003 -0.000002 -6.380425 6.912251 3.135232 -4.982301 3.553245 17.379976 -9.895356 5.725907 11.863695 0.000002 -0.000001 -0.000001 -6.366772 0.399338 -30.628699 -8.643890 -2.856350 -26.793312 18.130052 40.758546 -106.371809 -0.000005 0.000001 -0.000002 -12.691783 4.113601 -34.915726 8.382006 1.007641 -0.648807 -7.358382 7.366022 4.538774 -0.000000 0.000001 -0.000001 -2.840995 2.336540 5.098923 11.224805 18.110204 57.029112 40.668077 19.219696 12.807823 -0.000001 0.000001 -0.000002 
8.239788 99.044701 -6.781077 10.919100 -1.794850 30.919993 -9.738385 1.671437 -1.466177 2.613583 7.518697 -10.151124 0.492899 -2.063036 -2.126900 0.739694 10.471836 -8.046590 0.000006 -0.000000 0.000001 -6.244392 6.830143 2.924970 -5.070461 3.885015 17.723736 -9.940025 5.982678 12.019285 0.000000 -0.000001 -0.000000 -6.819259 -0.143020 -30.750130 -8.754737 -3.378852 -26.622773 14.152778 39.873920 -106.282135 -0.000003 0.000002 0.000001 -13.283871 4.321147 -35.015040 8.331577 0.985583 -1.322717 -7.349936 8.205934 5.017062 -0.000000 0.000000 -0.000000 -3.098329 2.439313 4.857310 12.070885 18.400647 56.847787 40.757521 19.151014 12.864865 0.000002 0.000008 -0.000000 
8.359044 98.877914 -6.872173 10.878575 -1.826673 31.085215 -9.707114 1.607657 -1.263286 3.475465 7.551837 -10.198801 -0.209467 -2.028981 -2.287087 0.547362 10.553126 -8.075265 0.000002 -0.000002 -0.000002 -6.439187 7.134976 2.927779 -4.821695 3.313215 17.518638 -10.186968 6.429627 12.146621 0.000001 -0.000004 0.000000 -6.943300 -0.297088 -30.909738 -8.831977 -3.654647 -26.503347 11.086041 39.245420 -106.043502 -0.000002 0.000002 0.000000 -13.509789 4.393413 -35.221373 9.040890 0.898555 -1.510937 -7.940247 8.605752 5.283922 -0.000000 -0.000000 0.000005 -3.485857 2.597982 4.578850 12.217353 18.567331 57.082575 41.099174 18.769500 12.984611 0.000002 0.000003 0.000004 
8.483693 98.712471 -6.970964 11.276460 -2.194187 31.319276 -9.463365 1.616291 -1.277206 2.603372 7.728011 -10.323480 0.435065 -2.018898 -2.066995 0.448191 10.803806 -8.175849 0.000000 -0.000001 -0.000002 -6.585233 7.273684 2.814049 -4.932604 3.556333 17.572509 -10.280413 6.442648 12.354921 0.000002 -0.000004 0.000005 -7.028842 -0.441083 -30.774326 -9.147425 -4.246709 -26.585145 10.321326 39.087274 -105.382948 -0.000001 0.000007 -0.000001 -14.764606 4.855835 -35.145934 9.603076 0.935499 -2.019419 -7.971895 9.732123 5.952273 -0.000000 -0.000001 -0.000001 -3.917888 2.812801 4.448790 12.012675 18.701225 57.508929 41.115580 18.228407 13.167463 0.000001 0.000005 0.000001 
8.611768 98.546173 -7.063599 11.020439 -2.384031 31.741883 -8.834063 1.537790 -1.255422 2.674694 7.992445 -10.667227 0.194945 -1.953457 -1.995232 0.037188 10.649440 -7.827022 0.000003 -0.000000 0.000001 -6.607202 7.299818 2.429950 -4.961610 3.902311 17.811159 -10.043104 6.280326 12.505299 -0.000000 -0.000003 0.000002 -7.133816 -0.734325 -30.760201 -9.255623 -4.619375 -26.714369 6.921245 38.057001 -104.900217 0.000000 0.000003 -0.000001 -15.118118 5.121571 -35.654936 9.916381 1.004085 -1.978316 -8.077724 10.259952 6.218909 -0.000000 -0.000001 0.000001 -3.668716 2.506758 3.857297 11.207139 18.750941 58.292857 41.341400 18.125497 13.457073 0.000003 0.000003 0.000003 
8.740250 98.386276 -7.155604 11.460614 -3.022151 32.157927 -8.939771 1.590675 -1.343296 2.697490 8.077287 -10.813495 0.232362 -1.906881 -1.943334 0.130059 11.063371 -8.141563 0.000003 -0.000001 -0.000002 -6.798101 7.442401 2.339816 -5.199629 4.211884 17.897722 -10.623056 7.880198 12.824256 0.000000 -0.000001 0.000001 -7.299914 -0.908718 -30.730725 -9.496021 -4.768201 -26.819322 4.812584 37.449903 -104.677546 -0.000002 0.000002 0.000002 -15.255518 5.308320 -36.025416 9.646667 1.334192 -1.953741 -7.481618 10.273287 6.173847 -0.000000 0.000001 0.000001 -3.965584 2.562215 3.715891 12.984616 19.120416 57.549699 41.770029 17.549123 13.645173 0.000003 0.000004 -0.000000 
8.863836 98.224609 -7.242834 12.142246 -3.073641 32.315117 -9.280425 1.651754 -1.328940 3.049712 8.077430 -10.861402 -0.028758 -2.062319 -2.023900 -0.072847 10.999678 -8.135541 0.000005 -0.000001 -0.000003 -6.845116 7.336138 2.179770 -5.405228 3.919369 18.094235 -10.745162 7.619616 12.596442 -0.000001 -0.000003 0.000001 -7.296825 -0.687014 -30.725387 -9.793609 -4.937780 -26.458502 8.019556 38.379974 -105.755473 -0.000001 -0.000000 0.000002 -15.511267 5.494033 -36.098062 9.544678 1.377438 -2.038719 -7.348392 10.119084 6.080346 -0.000000 -0.000000 0.000003 -4.620397 2.832726 3.532484 12.398994 19.143186 58.199919 42.125564 18.284879 13.678982 -0.000000 0.000003 0.000004 
